# xmcd CD database file
#
# Track frame offsets:
#	151
#	18873
#	34033
#	51131
#	67545
#	79272
#	93576
#	107438
#	119691
#	137827
#	154161
#
# Disc length: 2318 seconds
#
# Revision: 0
# Processed by: cddbd v1.5.2PL0 Copyright (c) Steve Scherf et al.
# Submitted via: CDex 1.51
#
DISCID=85090c0b
DTITLE=Merle Haggard - Chicago Wind
DYEAR=2005
DGENRE=Country
TTITLE0=Chicago Wind
TTITLE1=Where's All The Freedom
TTITLE2=White Man Singin' The Blues
TTITLE3=Leavin's Not The Only Way To Go
TTITLE4=What I've Been Meaning To Say
TTITLE5=Mexico
TTITLE6=Honky Tonk Man
TTITLE7=America First
TTITLE8=It Always Will Be
TTITLE9=I Still Can't Say Goodbye
TTITLE10=Some Of Us Fly
EXTD=YEAR: 2005
EXTT0=
EXTT1=
EXTT2=
EXTT3=
EXTT4=
EXTT5=
EXTT6=
EXTT7=
EXTT8=
EXTT9=
EXTT10=
PLAYORDER=
